<?xml version="1.0" encoding="UTF-8"?>
<svg xmlns="http://www.w3.org/2000/svg" xmlns:xlink="http://www.w3.org/1999/xlink" width="30px" height="24px" viewBox="0 0 30 24" version="1.1">
<g id="surface1">
<path style=" stroke:none;fill-rule:nonzero;fill:rgb(25.098039%,25.490196%,27.058824%);fill-opacity:1;" d="M 26.53125 11.882812 L 25.570312 11.882812 C 24.949219 11.882812 24.605469 12.253906 24.605469 12.898438 L 24.605469 15.207031 L 22.75 15.207031 L 22.75 11.882812 L 21.972656 11.882812 C 21.351562 11.882812 21.007812 12.253906 21.007812 12.898438 L 21.007812 15.207031 L 19.148438 15.207031 L 19.148438 10.640625 L 21.007812 10.640625 L 21.007812 11.335938 C 21.316406 10.792969 21.722656 10.640625 22.34375 10.640625 L 24.605469 10.640625 L 24.605469 11.335938 C 24.914062 10.792969 25.320312 10.640625 25.941406 10.640625 L 26.5625 10.640625 Z M 18.714844 13.273438 L 14.867188 13.273438 C 14.957031 13.796875 15.363281 14.070312 16.011719 14.070312 C 16.507812 14.070312 16.851562 13.894531 16.972656 13.625 L 18.617188 13.996094 C 18.210938 14.789062 17.222656 15.261719 16.011719 15.261719 C 13.996094 15.261719 13.066406 13.996094 13.066406 12.90625 C 13.066406 11.839844 13.871094 10.570312 15.886719 10.570312 C 18.027344 10.570312 18.742188 11.863281 18.742188 12.828125 C 18.746094 13.050781 18.746094 13.175781 18.714844 13.273438 Z M 16.945312 12.40625 C 16.914062 12.007812 16.542969 11.660156 15.925781 11.660156 C 15.335938 11.660156 14.996094 11.859375 14.871094 12.40625 Z M 9.84375 15.207031 L 11.457031 15.207031 L 13.503906 10.664062 L 11.640625 10.664062 L 10.648438 13.316406 L 9.652344 10.636719 L 7.792969 10.636719 Z M 2.273438 15.207031 L 4.105469 15.207031 L 4.105469 11.882812 L 5.871094 11.882812 L 5.871094 15.207031 L 7.703125 15.207031 L 7.703125 10.640625 L 4.105469 10.640625 L 4.105469 10.371094 C 4.105469 10.070312 4.386719 9.871094 4.785156 9.871094 L 5.871094 9.871094 L 5.871094 8.632812 L 4.507812 8.632812 C 3.175781 8.632812 2.277344 9.300781 2.277344 10.269531 L 2.277344 10.640625 L 1.21875 10.640625 L 1.21875 11.882812 L 2.273438 11.882812 Z M 2.273438 15.207031 "/>
<path style=" stroke:none;fill-rule:nonzero;fill:rgb(11.372549%,74.901961%,45.098039%);fill-opacity:1;" d="M 27.679688 15.332031 C 28.300781 15.332031 28.828125 14.90625 28.828125 14.414062 C 28.828125 13.917969 28.296875 13.5 27.679688 13.5 C 27.0625 13.5 26.535156 13.921875 26.535156 14.414062 C 26.53125 14.910156 27.058594 15.332031 27.679688 15.332031 Z M 27.679688 15.332031 "/>
</g>
</svg>
