<?xml version="1.0" encoding="UTF-8"?>
<svg xmlns="http://www.w3.org/2000/svg" xmlns:xlink="http://www.w3.org/1999/xlink" width="24px" height="30px" viewBox="0 0 24 30" version="1.1">
<g id="surface1">
<path style=" stroke:none;fill-rule:nonzero;fill:rgb(25.098039%,25.490196%,27.058824%);fill-opacity:1;" d="M 21.222656 14.851562 L 20.457031 14.851562 C 19.957031 14.851562 19.6875 15.316406 19.6875 16.121094 L 19.6875 19.007812 L 18.199219 19.007812 L 18.199219 14.851562 L 17.578125 14.851562 C 17.078125 14.851562 16.808594 15.316406 16.808594 16.121094 L 16.808594 19.007812 L 15.320312 19.007812 L 15.320312 13.300781 L 16.808594 13.300781 L 16.808594 14.171875 C 17.054688 13.492188 17.378906 13.300781 17.875 13.300781 L 19.6875 13.300781 L 19.6875 14.171875 C 19.933594 13.492188 20.257812 13.300781 20.753906 13.300781 L 21.25 13.300781 Z M 14.96875 16.59375 L 11.894531 16.59375 C 11.96875 17.246094 12.289062 17.585938 12.808594 17.585938 C 13.207031 17.585938 13.480469 17.371094 13.578125 17.027344 L 14.894531 17.492188 C 14.570312 18.488281 13.777344 19.078125 12.808594 19.078125 C 11.199219 19.078125 10.453125 17.492188 10.453125 16.132812 C 10.453125 14.796875 11.097656 13.214844 12.710938 13.214844 C 14.421875 13.214844 14.992188 14.828125 14.992188 16.035156 C 14.996094 16.3125 14.996094 16.46875 14.96875 16.59375 Z M 13.558594 15.507812 C 13.53125 15.007812 13.234375 14.578125 12.738281 14.578125 C 12.269531 14.578125 11.996094 14.824219 11.898438 15.507812 Z M 7.875 19.007812 L 9.164062 19.007812 L 10.804688 13.328125 L 9.3125 13.328125 L 8.519531 16.648438 L 7.722656 13.296875 L 6.234375 13.296875 Z M 1.820312 19.007812 L 3.285156 19.007812 L 3.285156 14.851562 L 4.695312 14.851562 L 4.695312 19.007812 L 6.160156 19.007812 L 6.160156 13.300781 L 3.285156 13.300781 L 3.285156 12.960938 C 3.285156 12.589844 3.507812 12.339844 3.828125 12.339844 L 4.695312 12.339844 L 4.695312 10.789062 L 3.605469 10.789062 C 2.539062 10.789062 1.820312 11.628906 1.820312 12.835938 L 1.820312 13.300781 L 0.976562 13.300781 L 0.976562 14.851562 L 1.820312 14.851562 Z M 1.820312 19.007812 "/>
<path style=" stroke:none;fill-rule:nonzero;fill:rgb(11.372549%,74.901961%,45.098039%);fill-opacity:1;" d="M 22.144531 19.164062 C 22.640625 19.164062 23.0625 18.636719 23.0625 18.019531 C 23.0625 17.398438 22.636719 16.871094 22.144531 16.871094 C 21.652344 16.871094 21.226562 17.402344 21.226562 18.019531 C 21.222656 18.640625 21.648438 19.164062 22.144531 19.164062 Z M 22.144531 19.164062 "/>
</g>
</svg>
