<?xml version="1.0" encoding="UTF-8"?>
<svg xmlns="http://www.w3.org/2000/svg" xmlns:xlink="http://www.w3.org/1999/xlink" width="24px" height="24px" viewBox="0 0 24 24" version="1.1">
<g id="surface1">
<path style=" stroke:none;fill-rule:nonzero;fill:rgb(25.098039%,25.490196%,27.058824%);fill-opacity:1;" d="M 21.222656 11.882812 L 20.457031 11.882812 C 19.957031 11.882812 19.6875 12.253906 19.6875 12.898438 L 19.6875 15.207031 L 18.199219 15.207031 L 18.199219 11.882812 L 17.578125 11.882812 C 17.078125 11.882812 16.808594 12.253906 16.808594 12.898438 L 16.808594 15.207031 L 15.320312 15.207031 L 15.320312 10.640625 L 16.808594 10.640625 L 16.808594 11.335938 C 17.054688 10.792969 17.378906 10.640625 17.875 10.640625 L 19.6875 10.640625 L 19.6875 11.335938 C 19.933594 10.792969 20.257812 10.640625 20.753906 10.640625 L 21.25 10.640625 Z M 14.96875 13.273438 L 11.894531 13.273438 C 11.96875 13.796875 12.289062 14.070312 12.808594 14.070312 C 13.207031 14.070312 13.480469 13.894531 13.578125 13.625 L 14.894531 13.996094 C 14.570312 14.789062 13.777344 15.261719 12.808594 15.261719 C 11.199219 15.261719 10.453125 13.996094 10.453125 12.90625 C 10.453125 11.839844 11.097656 10.570312 12.710938 10.570312 C 14.421875 10.570312 14.992188 11.863281 14.992188 12.828125 C 14.996094 13.050781 14.996094 13.175781 14.96875 13.273438 Z M 13.558594 12.40625 C 13.53125 12.007812 13.234375 11.660156 12.738281 11.660156 C 12.269531 11.660156 11.996094 11.859375 11.898438 12.40625 Z M 7.875 15.207031 L 9.164062 15.207031 L 10.804688 10.664062 L 9.3125 10.664062 L 8.519531 13.316406 L 7.722656 10.636719 L 6.234375 10.636719 Z M 1.820312 15.207031 L 3.285156 15.207031 L 3.285156 11.882812 L 4.695312 11.882812 L 4.695312 15.207031 L 6.160156 15.207031 L 6.160156 10.640625 L 3.285156 10.640625 L 3.285156 10.371094 C 3.285156 10.070312 3.507812 9.871094 3.828125 9.871094 L 4.695312 9.871094 L 4.695312 8.632812 L 3.605469 8.632812 C 2.539062 8.632812 1.820312 9.300781 1.820312 10.269531 L 1.820312 10.640625 L 0.976562 10.640625 L 0.976562 11.882812 L 1.820312 11.882812 Z M 1.820312 15.207031 "/>
<path style=" stroke:none;fill-rule:nonzero;fill:rgb(11.372549%,74.901961%,45.098039%);fill-opacity:1;" d="M 22.144531 15.332031 C 22.640625 15.332031 23.0625 14.90625 23.0625 14.414062 C 23.0625 13.917969 22.636719 13.5 22.144531 13.5 C 21.652344 13.5 21.226562 13.921875 21.226562 14.414062 C 21.222656 14.910156 21.648438 15.332031 22.144531 15.332031 Z M 22.144531 15.332031 "/>
</g>
</svg>
